<?xml version="1.0" encoding="UTF-8"?>
<svg width="301px" height="129px" viewBox="0 0 301 129" version="1.1" xmlns="http://www.w3.org/2000/svg" xmlns:xlink="http://www.w3.org/1999/xlink">
    <!-- Generator: Sketch 45.2 (43514) - http://www.bohemiancoding.com/sketch -->
    <title>Combined Shape</title>
    <desc>Created with Sketch.</desc>
    <defs></defs>
    <g id="Page-1" stroke="none" stroke-width="1" fill="none" fill-rule="evenodd">
        <g id="ttt" transform="translate(-489.000000, -365.000000)" fill="#FEFEFE">
            <g id="Group" transform="translate(153.000000, 90.000000)">
                <g id="fire-G" transform="translate(322.000000, 178.000000)">
                    <g id="Fire-logo" transform="translate(14.000000, 97.000000)">
                        <path d="M62.0572,12.3269 C62.0572,12.3269 53.9692,20.5149 52.3992,28.8339 C50.8292,37.1529 56.4712,41.9269 56.4712,41.9269 L35.9742,70.3039 C35.9742,70.3039 22.6542,50.7129 28.0532,37.3339 C32.5772,26.1219 62.4672,11.7469 62.0572,12.3269 Z M176.2549,0.1999 L151.0669,35.0709 C145.4789,42.8069 138.7749,49.6739 131.1729,55.4459 L121.8419,62.5309 C121.8419,62.5309 144.2369,36.1679 137.8989,28.9899 C132.3179,22.6709 111.7329,27.8229 105.5569,32.9839 C104.2629,33.7749 103.0519,34.6619 101.9629,35.5479 C99.2469,37.7569 96.8799,40.3619 94.8299,43.1999 L45.1859,111.9279 C40.9549,117.7839 34.6609,121.8179 27.5729,123.2159 L-0.000100000001,128.6529 L78.5139,19.8289 C78.5139,19.8289 84.1079,13.0689 78.8799,8.9269 C75.0339,5.8799 67.0359,9.4589 66.0109,9.9369 L80.4259,3.1239 C84.4989,1.1989 88.9479,0.1999 93.4529,0.1999 L109.8989,0.1999 L125.8899,0.1999 L176.2549,0.1999 Z M94.3731,51.1541 C97.0691,47.4211 101.4431,45.7241 106.0341,45.3681 C110.4101,45.0281 119.1741,43.6221 124.7321,41.3061 C132.5821,38.0371 136.1421,33.9901 136.1421,33.9901 C136.1421,33.9901 131.4431,43.8171 125.7321,51.3651 C120.9771,57.6501 115.3941,61.7991 112.3991,62.5311 C101.0951,65.2971 83.7011,65.9281 83.7011,65.9281 L94.3731,51.1541 Z M81.9493,68.2791 L83.0623,68.8851 C95.9683,74.6051 109.4913,92.6451 101.2173,104.0831 L83.2413,128.9671 C83.2413,128.9671 68.0293,105.6881 69.3623,93.0211 C70.6953,80.3541 81.9493,68.2791 81.9493,68.2791 Z M221.2305,7.238 C219.8485,8.63 217.1945,12.057 214.2105,16.094 C204.7855,28.846 189.8885,36.396 174.0325,36.396 L164.0205,36.396 L183.8955,8.882 C187.9245,3.303 194.3865,-2.78368908e-17 201.2675,-2.78368908e-17 L237.5415,-2.78368908e-17 C233.3865,-2.78368908e-17 229.3045,1.185 225.8545,3.5 C224.2835,4.553 222.6445,5.814 221.2305,7.238 Z M300.7325,-0.000200000002 L268.2075,45.0278 C268.2075,45.0278 264.6685,22.5148 244.5855,22.4848 L214.7325,22.5148 C214.7325,22.5148 221.0445,12.4168 230.2325,5.9898 C236.6155,1.5258 246.3785,-0.000200000002 248.0945,-0.000200000002 L300.7325,-0.000200000002 Z M249.211,49.5535 L264.668,49.5535 L213.788,119.9915 C210.492,124.5545 205.568,127.5935 200.119,128.5525 L196.405,128.8785 L161.766,128.8785 L142.998,128.8785 L129.612,128.8785 L97.217,128.8785 L148.097,58.4415 C152.128,52.8605 158.595,49.5535 165.48,49.5535 L193.167,49.5535 L205.372,49.5535 L191.169,69.2515 L165.017,69.2515 L158.819,77.8595 L184.99,77.8595 L169.7,99.0655 L143.553,99.0655 L137.356,107.6725 L197.102,107.6725 L203.299,99.0655 L175.58,99.0655 L190.897,77.8595 L218.565,77.8595 L222.357,72.5935 C222.738,72.2325 223.099,71.8435 223.412,71.4095 L224.971,69.2515 L197.05,69.2515 L199.623,65.6895 C206.941,55.5565 218.681,49.5535 231.18,49.5535 L239.199,49.5535 L249.211,49.5535 Z M213.3585,46.74 C213.3585,46.74 235.7325,40.99 242.7325,36.142 C248.1035,32.424 250.5605,27.286 250.5605,27.286 L251.8385,27.94 C257.5635,30.872 262.0145,35.799 264.3505,41.791 L265.6135,46.74 L213.3585,46.74 Z" id="Combined-Shape"></path>
                    </g>
                </g>
            </g>
        </g>
    </g>
</svg>